# xmcd CD database file
#
# Track frame offsets:
#	150
#	20357
#	47335
#	75005
#	96666
#	112614
#	138754
#	161161
#	187172
#	212559
#	234011
#	260841
#
# Disc length: 3490 seconds
#
# Revision: 1
# Processed by: cddbd v1.4PL0 Copyright (c) Steve Scherf et al.
# Submitted via: CDValet v3.40 - Copyright (c) 1996 - 1998 Greg Leichner
#
DISCID=8e0da00c
DTITLE=The Doc Knotz 5 - Kappadozia Session
DYEAR=1900
DGENRE=
TTITLE0=summertime
TTITLE1=good times, bad times
TTITLE2=gee baby
TTITLE3=it's blues
TTITLE4=brown angel
TTITLE5=satisfaction
TTITLE6=long telephon call
TTITLE7=hey joe
TTITLE8=room to move
TTITLE9=latin doll
TTITLE10=okay
TTITLE11=
EXTD=
EXTT0=
EXTT1=
EXTT2=
EXTT3=
EXTT4=
EXTT5=
EXTT6=
EXTT7=
EXTT8=
EXTT9=
EXTT10=
EXTT11=
PLAYORDER=
